<?xml version="1.0" encoding="UTF-8"?>
<!DOCTYPE svg PUBLIC "-//W3C//DTD SVG 1.1//EN" "http://www.w3.org/Graphics/SVG/1.1/DTD/svg11.dtd">
<svg
  xmlns="http://www.w3.org/2000/svg"
  version="1.0"
  width="16px"
  height="16px">
  <g><path fill="#000000" d="M -0.5,-0.5 C 4.83333,-0.5 10.1667,-0.5 15.5,-0.5C 15.5,1.83333 15.5,4.16667 15.5,6.5C 13.5372,5.04009 11.7038,3.37342 10,1.5C 10.1953,3.74505 11.3619,5.57838 13.5,7C 11.3619,8.42162 10.1953,10.255 10,12.5C 11.7038,10.6266 13.5372,8.95991 15.5,7.5C 15.5,10.1667 15.5,12.8333 15.5,15.5C 10.1667,15.5 4.83333,15.5 -0.5,15.5C -0.5,12.8333 -0.5,10.1667 -0.5,7.5C 1.46283,8.95991 3.29617,10.6266 5,12.5C 4.80472,10.255 3.63806,8.42162 1.5,7C 3.63806,5.57838 4.80472,3.74505 5,1.5C 3.29617,3.37342 1.46283,5.04009 -0.5,6.5C -0.5,4.16667 -0.5,1.83333 -0.5,-0.5 Z" /></g>
  <g><path fill="#00ff03" d="M -0.5,7.5 C -0.5,7.16667 -0.5,6.83333 -0.5,6.5C 1.46283,5.04009 3.29617,3.37342 5,1.5C 4.80472,3.74505 3.63806,5.57838 1.5,7C 3.63806,8.42162 4.80472,10.255 5,12.5C 3.29617,10.6266 1.46283,8.95991 -0.5,7.5 Z" /></g>
  <g><path fill="#00ff03" d="M 15.5,6.5 C 15.5,6.83333 15.5,7.16667 15.5,7.5C 13.5372,8.95991 11.7038,10.6266 10,12.5C 10.1953,10.255 11.3619,8.42162 13.5,7C 11.3619,5.57838 10.1953,3.74505 10,1.5C 11.7038,3.37342 13.5372,5.04009 15.5,6.5 Z" /></g>
  <g><path fill="#00ff03" d="M 8.5,4.5 C 9.04309,4.55999 9.37642,4.89333 9.5,5.5C 4.88941,10.6185 4.55608,10.2851 8.5,4.5 Z" /></g>
</svg>
