<?xml version="1.0" standalone="no"?>
<!DOCTYPE svg PUBLIC "-//W3C//DTD SVG 20010904//EN"
 "http://www.w3.org/TR/2001/REC-SVG-20010904/DTD/svg10.dtd">
<svg version="1.0" xmlns="http://www.w3.org/2000/svg"
 width="254.000000pt" height="254.000000pt" viewBox="0 0 254.000000 254.000000"
 preserveAspectRatio="xMidYMid meet">

<g transform="translate(0.000000,254.000000) scale(0.100000,-0.100000)"
fill="#000000" stroke="none">
<path d="M1022 2184 c-220 -40 -409 -146 -538 -303 -68 -81 -146 -238 -176
-351 -33 -122 -33 -374 0 -504 40 -157 115 -297 221 -410 115 -121 229 -189
406 -242 82 -25 106 -27 255 -28 152 0 172 2 253 27 98 30 157 58 234 110 l51
35 26 -59 25 -59 236 0 235 0 0 875 0 875 -227 -2 -228 -3 -28 -60 c-16 -33
-30 -61 -32 -63 -1 -1 -41 22 -89 52 -48 30 -115 64 -149 75 -147 49 -327 62
-475 35z m323 -524 c134 -22 250 -112 296 -228 19 -46 23 -78 23 -162 1 -99
-1 -109 -32 -172 -76 -156 -229 -241 -397 -223 -132 14 -242 92 -302 213 -37
73 -38 80 -38 181 0 98 2 111 31 172 56 118 143 189 264 215 70 16 82 16 155
4z"/>
</g>
</svg>
